<svg xmlns="http://www.w3.org/2000/svg" version="1.1" xmlns:xlink="http://www.w3.org/1999/xlink" width="512" height="512" x="0" y="0" viewBox="0 0 512 512" style="enable-background:new 0 0 512 512" xml:space="preserve"><g><path d="M256.76 103.95c-38.69 0-70.16 33.25-70.16 74.13 0 40.87 31.47 74.12 70.16 74.12s70.16-33.25 70.16-74.12c0-40.88-31.47-74.13-70.16-74.13zm0 118.25c-22.15 0-40.16-19.79-40.16-44.12s18.01-44.13 40.16-44.13 40.16 19.8 40.16 44.13c0 24.33-18.01 44.12-40.16 44.12zM406.15 113.92h-.48c-33.56.28-60.62 29.29-60.33 64.66.29 35.2 27.56 63.65 60.91 63.65h.48c16.45-.14 31.81-7.07 43.24-19.52 11.16-12.17 17.23-28.2 17.09-45.14-.29-35.2-27.56-63.65-60.91-63.65zm21.71 88.5c-5.74 6.26-13.33 9.74-21.38 9.81h-.23c-16.91 0-30.76-15.15-30.91-33.9-.16-18.83 13.56-34.27 30.58-34.41h.23c16.91 0 30.76 15.16 30.91 33.9.08 9.32-3.19 18.06-9.2 24.6z" fill="#affc41" opacity="1" data-original="#000000"></path><path d="M421.7 249.73h-31c-23.85 0-45.57 9.3-61.72 24.46-15.72-9.3-34.03-14.64-53.58-14.64h-37.29c-19.93 0-38.59 5.55-54.5 15.18-16.22-15.48-38.17-25-62.31-25h-31c-49.79 0-90.3 40.51-90.3 90.3v38.23h132.54v29.79h248.43v-29.79H512v-38.23c0-49.79-40.51-90.3-90.3-90.3zm-287.81 98.53H30v-8.23c0-33.25 27.05-60.3 60.3-60.3h31c14.8 0 28.37 5.36 38.88 14.25-13.57 14.84-22.96 33.56-26.29 54.28zm217.08 29.79H162.54v-12.93a75.231 75.231 0 0 1 15.43-45.71 75.853 75.853 0 0 1 23.72-20.48c10.81-5.98 23.23-9.38 36.42-9.38h37.29c12.73 0 24.72 3.16 35.25 8.74a75.97 75.97 0 0 1 23.87 19.82 75.19 75.19 0 0 1 14.55 30.15c1.24 5.42 1.9 11.07 1.9 16.86v12.93zM482 348.26H379.62c-3.39-21.05-13.03-40.04-26.94-55 10.38-8.46 23.62-13.53 38.02-13.53h31c33.25 0 60.3 27.05 60.3 60.3v8.23zM105.75 113.92h-.48c-33.56.28-60.62 29.29-60.33 64.66.29 35.2 27.56 63.65 60.91 63.65h.48c16.45-.14 31.81-7.07 43.24-19.52 11.16-12.17 17.23-28.2 17.09-45.14-.29-35.2-27.56-63.65-60.91-63.65zm21.71 88.5c-5.74 6.26-13.33 9.74-21.38 9.81h-.23c-16.91 0-30.76-15.15-30.91-33.9-.16-18.83 13.56-34.27 30.58-34.41h.23c16.91 0 30.76 15.16 30.91 33.9.08 9.32-3.19 18.06-9.2 24.6z" fill="#affc41" opacity="1" data-original="#000000"></path></g></svg>