<svg xmlns="http://www.w3.org/2000/svg" version="1.1" xmlns:xlink="http://www.w3.org/1999/xlink" width="512" height="512" x="0" y="0" viewBox="0 0 512 512" style="enable-background:new 0 0 512 512" xml:space="preserve"><g><path d="M299.579 143.756c28.947 0 54.932-17.227 66.192-43.906 4.057-9.595-.439-20.661-10.024-24.717-9.605-4.036-20.671.439-24.727 10.034a34.06 34.06 0 0 1-31.451 20.865c-18.842 0-34.169-15.317-34.169-34.138 0-18.842 15.327-34.169 34.159-34.169 13.202 0 24.993 7.388 30.756 19.271 4.557 9.37 15.828 13.273 25.218 8.726 9.37-4.557 13.273-15.838 8.726-25.208C352.303 15.909 326.922.01 299.579 0c-39.646 0-71.893 32.248-71.893 71.893-.001 39.625 32.257 71.863 71.893 71.863zM497.868 435.836l-31.808-30.797c-25.586-56.301-103.998-222.833-146.065-246.099a54.643 54.643 0 0 0-25.719-8.225c-11.896-.705-23.149 2.491-32.524 8.463l-143.326 49.207c-9.85 3.382-15.092 14.121-11.71 23.971 2.687 7.827 10.003 12.742 17.841 12.742a18.93 18.93 0 0 0 6.131-1.032L236.03 207.9c-5.108 63.228-29.32 110.431-52.515 148.41a55.453 55.453 0 0 0-3.399 6.503c-19.834 33.863-95.391 82.534-129.7 97.413 2.005-33.88 11.214-110.609 22.167-190.583a18.902 18.902 0 0 0 8.405 1.991c2.463 0 4.966-.501 7.377-1.512 9.584-4.087 14.05-15.163 9.973-24.748L54.614 142.632c-4.077-9.584-15.163-14.039-24.748-9.973-9.584 4.087-14.05 15.163-9.973 24.748l22.825 53.636c-.477 3.299-.946 6.553-1.408 9.773l-16.615 2.282c-10.32 1.42-17.544 10.933-16.124 21.253 1.298 9.452 9.39 16.298 18.668 16.298.858 0 1.727-.051 2.585-.174l5.984-.822c-29.6 212.196-23.276 224.823-20.472 230.45 3.862 7.725 11.843 12.292 21.437 12.292.184 0 .378 0 .562-.01 24.892-.466 101.284-42.843 147.392-87.134a54.404 54.404 0 0 0 16.902 16.171 54.542 54.542 0 0 0 28.447 8.021c9.501 0 18.568-2.398 26.529-6.82 51.826 12.643 108.28 29.091 141.903 42.082-41.505-1.379-114.41-11.894-177.945-24.86a18.963 18.963 0 0 0-7.623.01L148.996 463.2c-10.198 2.125-16.737 12.129-14.612 22.326 2.125 10.198 12.118 16.706 22.316 14.612l60.143-12.548C270.12 498.369 347.95 512 400.777 512c24.176 0 43.109-2.861 52.03-10.157 6.325-5.17 9.809-12.333 9.809-20.18 0-12.914-.003-36.436-178.234-81.073 16.462-27.853 41.373-74.778 53.984-137.448 2.054-10.218-4.557-20.16-14.765-22.214-10.238-2.064-20.16 4.557-22.214 14.765-13.447 66.805-42.701 114.747-56.853 137.932a16.116 16.116 0 0 1-3.19 3.77c-.043.033-.083.071-.125.104-5.401 4.612-13.587 5.608-19.92 1.735-3.852-2.35-6.55-6.059-7.612-10.453a16.779 16.779 0 0 1 .563-9.766 76.374 76.374 0 0 0 1.918-3.761c26.203-43.028 53.458-96.971 57.948-171.019.572-9.298 8.818-16.41 17.912-15.858a16.75 16.75 0 0 1 8.144 2.667c.593.388 1.206.736 1.839 1.052 20.998 10.535 84.441 128.511 131.188 231.773a18.809 18.809 0 0 0 4.057 5.773l34.383 33.29a18.789 18.789 0 0 0 13.12 5.313c4.935 0 9.85-1.911 13.539-5.753 7.243-7.477 7.049-19.412-.43-26.656z" fill="#affc41" opacity="1" data-original="#000000"></path></g></svg>