<svg xmlns="http://www.w3.org/2000/svg" version="1.1" xmlns:xlink="http://www.w3.org/1999/xlink" width="512" height="512" x="0" y="0" viewBox="0 0 48 48" style="enable-background:new 0 0 512 512" xml:space="preserve" class=""><g><path d="M15.931 21.951a.751.751 0 0 0-.366 1c.582 1.252 1.451 4.192.759 9.812a22.683 22.683 0 0 0-.347 4.7H11.17a.749.749 0 0 0-.744.841l1.1 9.042a.75.75 0 0 0 .744.659h8.9a.75.75 0 0 0 .744-.659l1.1-9.042a.75.75 0 0 0-.745-.841h-4.786c-.07-3.459.456-6.1 1.453-7.125a5.642 5.642 0 0 1 .779-.672.75.75 0 0 0-.873-1.221 7.2 7.2 0 0 0-.761.657 15.77 15.77 0 0 0-1.154-6.782.752.752 0 0 0-.996-.369zm5.494 17.007-.92 7.542h-7.568l-.92-7.542z" fill="#affc41" opacity="1" data-original="#000000" class=""></path><path d="M5.06 29.468a5.754 5.754 0 0 1 2.487.687 7.949 7.949 0 0 1 .733.545 6.746 6.746 0 0 0 3.439 1.72c.2.019.389.028.572.028a4.306 4.306 0 0 0 2.977-1.064 2.637 2.637 0 0 0 .517-3.3 4.809 4.809 0 0 0-3.385-2.262c-3.927-.918-7.65 2.192-7.807 2.324a.751.751 0 0 0 .471 1.322zm7-2.185a3.352 3.352 0 0 1 2.443 1.57 1.122 1.122 0 0 1-.234 1.417 3.034 3.034 0 0 1-2.406.656 5.5 5.5 0 0 1-2.646-1.4 9.388 9.388 0 0 0-.885-.65 5.792 5.792 0 0 0-1.3-.572 7.236 7.236 0 0 1 5.023-1.021zM24.093 21.963a6.172 6.172 0 0 0-3.993 3.38 3.264 3.264 0 0 0 1.109 3.984 5.3 5.3 0 0 0 3.133.952 7.38 7.38 0 0 0 1.528-.167 8.785 8.785 0 0 0 4.161-2.74 11.379 11.379 0 0 1 .908-.853 7.952 7.952 0 0 1 3.305-1.344.75.75 0 0 0 .316-1.366c-.223-.149-5.524-3.631-10.467-1.846zm5.925 3.373a12.011 12.011 0 0 0-1.048.976 7.523 7.523 0 0 1-3.41 2.333 4.283 4.283 0 0 1-3.482-.54 1.739 1.739 0 0 1-.611-2.145 4.7 4.7 0 0 1 3.133-2.586 7.29 7.29 0 0 1 2.484-.414 12.434 12.434 0 0 1 5.04 1.24 7.922 7.922 0 0 0-2.106 1.136z" fill="#affc41" opacity="1" data-original="#000000" class=""></path><path d="M22.372 26.063a.75.75 0 1 0 .813 1.261 21.689 21.689 0 0 1 2.269-1.268 9.723 9.723 0 0 1 3.03-.905.751.751 0 0 0 .677-.817.742.742 0 0 0-.817-.676 11.527 11.527 0 0 0-3.51 1.032 23.5 23.5 0 0 0-2.462 1.373zM9.868 29.05a7.237 7.237 0 0 1 1.294.225 7.781 7.781 0 0 1 1.6.685.749.749 0 0 0 1.021-.284.75.75 0 0 0-.283-1.022 9.283 9.283 0 0 0-1.924-.82A8.7 8.7 0 0 0 10 27.556a.75.75 0 1 0-.133 1.494zM7.4 14.678a5.806 5.806 0 0 1 1.741 1.9 8.361 8.361 0 0 1 .332.85 6.748 6.748 0 0 0 2 3.286 4.7 4.7 0 0 0 2.881 1.065 3.929 3.929 0 0 0 .677-.058 2.639 2.639 0 0 0 2.192-2.521 4.809 4.809 0 0 0-1.67-3.714c-2.844-2.871-7.646-2.209-7.85-2.179a.75.75 0 0 0-.3 1.37zm7.085 1.864a3.356 3.356 0 0 1 1.237 2.628 1.121 1.121 0 0 1-.952 1.076 3.017 3.017 0 0 1-2.387-.721 5.508 5.508 0 0 1-1.5-2.595 9.311 9.311 0 0 0-.4-1.02 5.756 5.756 0 0 0-.792-1.17 7.259 7.259 0 0 1 4.795 1.802z" fill="#affc41" opacity="1" data-original="#000000" class=""></path><path d="M12.672 17.756a7.7 7.7 0 0 1 1.021 1.483.751.751 0 0 0 1.325-.706 9.41 9.41 0 0 0-1.227-1.776 8.144 8.144 0 0 0-1.02-.944.75.75 0 0 0-.932 1.176 6.748 6.748 0 0 1 .833.767zM24.338 17.347a.749.749 0 0 0 1.222.369l1.192-1.056 5.8 1.171.175.249a2.172 2.172 0 0 0 1.531.906A1.98 1.98 0 0 0 34.5 19a2.173 2.173 0 0 0 1.45-.555l6.87-6.162a2.154 2.154 0 0 0 .072-3.153c.82-1.173 1.061-3.115-1.093-6.247C40.59 1.125 39.724.147 38.61.014a3.106 3.106 0 0 0-2.319.979L35 2.154l-.557-.491a.752.752 0 0 0-1 0l-7.029 6.3a.75.75 0 0 0-.112.99l2.769 3.931-2.565.236-2.286-.569a.75.75 0 0 0-.907.92zm1.928-2.732a.777.777 0 0 0 .25.019l3.983-.367a.751.751 0 0 0 .545-1.179l-3.133-4.445 6.036-5.414L35.618 4.7a.75.75 0 1 0 .992-1.125l-.481-.424 1.164-1.044c.491-.44.861-.64 1.14-.6.572.068 1.361 1.111 2.129 2.228.938 1.365 1.824 3.146 1.187 4.37l-3.632-3.2a.75.75 0 0 0-.992 1.125l4.69 4.133a.671.671 0 0 1 0 1l-6.871 6.162a.676.676 0 0 1-.523.167.663.663 0 0 1-.473-.28l-.347-.493a.752.752 0 0 0-.464-.3l-6.458-1.3a.75.75 0 0 0-.646.174l-.561.5-.389-1.466zM22.631 17.5a.757.757 0 1 0-.756-.757.757.757 0 0 0 .756.757zM20.852 19.081a.757.757 0 1 0-.756-.756.757.757 0 0 0 .756.756zM19.7 21.151a.757.757 0 1 0-.757-.757.757.757 0 0 0 .757.757z" fill="#affc41" opacity="1" data-original="#000000" class=""></path></g></svg>